P1
# image has had its black edges changed to white
64 64
0000000000000000000000000000000000000000000000000000000000000000
0100000000000000000000000000000000000000000000001100000000000010
0010000000000000000000000000000000000000000000111100000000000100
0001000000000000001010000000000000000000000011111100000000001000
0000100000000000000100000000000000000000001111110000000000000000
0000000000000000000000000000000000000000001111111000000000000000
0000000000000000000000000000000000000000000111111000000000000000
0000000000000000000000000000000000000000000000011000000000000000
0000000000000000000000000000000000000000000000011100000000010000
0000000000000000000000000000000000000000000000011100000000101000
0000000000000000000000000000001000000000000000001100000000010000
0000000000000000000000000000000100000000000000011000000000000000
0000000000001000001111000000000010000000000000011000000000000000
0000000000000100001111000000000001000000000000000000000000000000
0000000000000000000011000000000000100000000000000100000000000000
0000000000000000000011000000000000010000000000001000000000000000
0000000000000000000011000000000000001000000000010000000000000000
0000000000000000000000000000000001000000000000000000000000000000
0000000000000000000000000000000010000000000000000000000000000000
0000000000000000000000000000000100000000000000000000000000000000
0000000000000000000010000000001000000000000000000000000000000000
0000000000000000000001000000010000000000000000000000000000000000
0000000000000000000000100000100000000000000000000000000000000000
0000000000000000000000010000000000000000000000000000000000000000
0000000000011101010000001000000000000001000000000000000000000000
0000000000011100100000000100000000000010000000000000000000000000
0000000000111101000000000010000000000100000000000000000000000000
0000000000111100000000000011111110001000000000000000000000000010
0000000000111100000000001111110101010000000000000000000000000100
0000000000000000000000011111111010000000000000000000000000000010
0000000000000000000000111111110100000000000000000000000000000000
0000000000000000000000111111100000000000000000000000000000000000
0000000000000000000000111111000000000000000000010000000000000000
0000000000000000000000111110000000000000000000101000000000000000
0000000000000000000000111110010000000000000000010000000000000000
0000000000000000000000111111100000010000000000101000000000000000
0000000000000000000000111111110000001000000000000000000000000000
0000000010101010101000111111111111000000000000000000000000000000
0000000101010101010100011111111111000000000000000000000000000000
0000000010101010101000001111111111000000000000000000000000000000
0000000001010101010100010011111111000000000000000000000000000000
0000000000000010100000100000000000000000000000000000000000000000
0000000000000000000001000000010000000000000000000000000000000000
0000000000000000000010000000001000000000000000000000000000000000
0000000000000000000000000000000100000000000000000000000000000000
0000000000000000000000000000000010000000000000000000000000000000
0100000000000000000000000000000001000000000000000000000000000000
0000000000000000000000000000000000100000000000000000000000000000
0100000000000000000000000000000000010000000000000000000000000000
0000111111000000000000000000000000001000000000000000000000000000
0100111111111100000000000011111000000100000000000000000000000000
0001111111111111110111111010101010100010000000000000000000000000
0101111111111111111111010101010101010100000000000000000000000000
0001111111111111111110101010101010101010000000000000000000000000
0101111001111111111101010101010101010101000000000000000000000000
0001111010000011111010101000000000101010100000000000000000000000
0101111100000000010101010000000000010101010000000000000000000000
0001111111111110101010100000000000001010101000000000000001000000
0101111111111111010101000000000000001101010100000000000000100000
0001111111111110101010000000000000001110101010000000000000010000
0001111111111101010110000000000000001111010100000000000000001000
0010011111111010101100000000000000001111101010000000001010000100
0100000000000101010000000000000000001111010101000001010101000010
0000000000000000000000000000000000000000000000000000000000000000

