P1
# image has had its black edges changed to white
15 15
000000000000000
000000000000000
000000000000000
000000000111000
000000000101000
000000000111000
000000000000000
000000000000000
000000000000000
000011100000000
000010100011100
000011100010100
000000000011100
000000000000000
000000000000000

