P1
10 10
1011011100
1010011010
0011111111
1011000101
1000001111
0101111111
0000111100
1101011001
0101110110
0101000101
